<?xml version="1.0" standalone="no"?>
<!DOCTYPE svg PUBLIC "-//W3C//DTD SVG 20010904//EN"
 "http://www.w3.org/TR/2001/REC-SVG-20010904/DTD/svg10.dtd">
<svg version="1.0" xmlns="http://www.w3.org/2000/svg"
 width="484.000000pt" height="413.000000pt" viewBox="0 0 484.000000 413.000000"
 preserveAspectRatio="xMidYMid meet">

<g transform="translate(0.000000,413.000000) scale(0.100000,-0.100000)"
fill="#000000" stroke="none">
<path d="M1724 3882 c-144 -105 -491 -539 -565 -708 -36 -80 -160 -174 -232
-174 -10 0 -33 -7 -52 -14 -53 -22 -48 -57 21 -148 l55 -73 -28 -6 c-15 -4
-44 -7 -64 -8 -20 0 -50 -6 -68 -12 -25 -9 -31 -17 -31 -39 0 -15 6 -33 14
-39 14 -12 41 -100 33 -108 -3 -2 -40 1 -84 6 -129 16 -189 -7 -219 -85 -34
-90 8 -221 127 -394 33 -50 72 -100 85 -113 46 -43 24 -110 -51 -157 -19 -12
-35 -25 -35 -30 0 -5 32 -29 70 -55 39 -26 70 -50 70 -53 0 -4 -35 -25 -78
-47 -69 -36 -77 -43 -77 -69 0 -25 8 -34 45 -56 44 -26 45 -27 45 -80 0 -54 0
-54 -54 -91 -176 -122 -250 -273 -207 -423 23 -79 86 -145 182 -193 131 -64
233 -57 437 31 127 55 145 59 232 47 446 -61 581 -77 800 -97 99 -8 185 -20
191 -25 7 -5 15 -25 18 -44 13 -65 77 -176 141 -241 80 -82 136 -108 230 -108
86 0 150 29 213 98 65 71 84 123 90 244 2 56 6 102 8 102 2 0 51 -29 108 -65
160 -101 342 -165 468 -165 216 1 525 174 737 413 214 241 352 597 355 917 1
118 -1 128 -27 180 -15 30 -39 64 -54 74 -37 27 -121 33 -162 11 -18 -9 -34
-15 -35 -13 -2 2 -11 43 -20 93 -47 238 -140 385 -288 455 -103 49 -210 49
-269 1 -35 -28 -29 -73 29 -207 78 -180 94 -253 95 -414 1 -141 -4 -173 -50
-290 -93 -235 -322 -440 -561 -501 -134 -34 -322 -18 -314 27 12 68 13 84 3
103 -12 22 -3 51 26 79 20 20 16 54 -12 92 -25 34 -33 56 -16 46 19 -12 184
25 239 53 70 35 137 105 151 158 19 70 -18 149 -97 206 -43 32 -151 88 -196
102 -24 7 -8 28 34 45 39 16 48 51 22 87 l-19 27 31 15 c44 22 45 61 5 153
-37 85 -39 126 -15 288 33 225 38 464 11 628 -27 159 -39 201 -87 292 -28 52
-52 97 -53 99 -2 1 -43 -20 -90 -49 -176 -107 -443 -321 -485 -389 -14 -23
-31 -41 -38 -41 -8 0 -60 15 -115 34 -56 19 -139 40 -183 47 l-82 12 -6 44
c-5 41 -106 303 -148 386 -22 45 -100 156 -109 157 -3 0 -24 -13 -45 -28z m87
-126 c66 -141 129 -307 149 -390 11 -44 23 -83 27 -87 4 -4 53 -15 108 -23 92
-14 242 -59 307 -92 37 -19 45 -18 52 9 10 42 128 157 263 259 124 93 292 202
299 195 6 -6 62 -310 75 -402 13 -100 7 -323 -13 -470 -14 -105 -14 -112 -1
-230 7 -59 20 -109 37 -145 34 -72 34 -90 -2 -90 -52 0 -71 -50 -32 -85 27
-25 26 -28 -20 -59 -31 -21 -40 -33 -40 -55 0 -27 9 -34 113 -91 200 -110 245
-181 171 -269 -57 -68 -175 -111 -312 -114 -103 -3 -110 -15 -55 -97 41 -60
41 -61 25 -90 -15 -26 -15 -32 1 -84 16 -51 16 -58 2 -93 -15 -35 -15 -39 3
-63 34 -45 67 -55 192 -55 92 0 130 5 190 24 188 58 347 173 468 336 131 178
187 383 162 598 -14 118 -35 192 -101 349 -27 64 -49 120 -49 126 0 19 60 35
114 29 74 -7 143 -43 203 -104 82 -83 121 -183 173 -436 12 -61 31 -79 59 -58
39 28 97 49 124 44 34 -7 73 -52 87 -101 15 -54 12 -186 -5 -288 -61 -349
-221 -642 -460 -843 -206 -174 -394 -260 -566 -261 -126 0 -309 65 -449 160
-48 33 -164 90 -182 90 -2 0 -3 -57 -4 -128 0 -155 -19 -207 -96 -277 -60 -54
-103 -69 -179 -62 -131 12 -239 124 -300 311 -23 71 -30 81 -55 88 -16 4 -166
19 -334 33 -168 14 -314 28 -325 31 -11 3 -63 9 -115 14 -52 5 -124 16 -160
25 -112 25 -183 20 -275 -21 -159 -71 -213 -86 -300 -82 -67 2 -92 9 -147 36
-202 99 -210 291 -19 461 154 137 148 129 147 207 l-1 69 -40 20 c-51 25 -53
27 -38 32 7 3 37 23 68 45 77 57 75 75 -15 122 -80 42 -89 52 -57 60 12 3 37
19 55 37 26 26 32 39 33 78 2 74 -1 83 -38 136 -126 179 -173 278 -173 367 0
45 4 59 25 78 23 22 29 23 125 16 118 -7 160 6 160 50 0 34 -29 132 -41 139
-21 14 -5 23 69 39 102 23 102 23 102 38 0 7 -27 45 -60 83 -33 39 -60 75 -60
81 0 6 27 14 62 18 94 9 178 68 223 156 9 17 19 30 24 30 4 0 48 63 97 140 49
78 138 200 199 273 108 130 265 297 279 297 4 0 25 -38 47 -84z"/>
<path d="M1704 3685 c-160 -171 -418 -505 -402 -521 9 -9 219 53 292 86 36 17
72 40 80 52 7 13 35 112 61 221 57 237 54 253 -31 162z m-15 -190 c-16 -66
-29 -127 -29 -137 0 -29 -36 -53 -143 -95 -125 -50 -147 -57 -147 -46 0 5 41
56 92 113 50 58 127 147 171 198 44 51 81 92 82 90 2 -2 -10 -57 -26 -123z"/>
<path d="M2947 3487 c-8 -7 -31 -50 -50 -97 -43 -104 -185 -410 -199 -427 -15
-18 -7 -25 94 -86 52 -30 122 -81 157 -112 35 -31 70 -55 79 -53 30 6 36 88
24 293 -11 180 -36 419 -48 458 -8 26 -38 39 -57 24z m43 -422 c6 -77 14 -180
17 -230 l6 -90 -110 100 c-61 55 -122 108 -137 118 -31 22 -26 40 36 124 24
32 68 112 98 178 l55 118 12 -89 c6 -49 17 -152 23 -229z"/>
<path d="M1375 2952 c-123 -60 -190 -162 -189 -287 1 -91 19 -131 96 -211 54
-56 70 -67 130 -85 80 -25 136 -20 208 16 44 22 122 97 132 125 7 22 47 -6 41
-29 -9 -34 17 -260 37 -325 53 -170 140 -184 185 -30 31 106 36 248 11 305 -5
12 -1 18 18 23 38 9 32 22 -21 46 -27 11 -65 30 -85 41 -35 18 -39 18 -78 3
-32 -13 -47 -14 -65 -6 -22 10 -23 13 -11 52 7 23 20 47 30 52 10 6 52 12 94
15 89 6 165 -17 217 -65 30 -27 31 -30 27 -99 -4 -60 0 -80 20 -125 31 -67
101 -139 169 -174 140 -71 310 -8 384 143 80 163 15 353 -148 428 -127 59
-301 4 -378 -121 l-21 -35 -27 25 c-48 46 -118 70 -206 71 -44 0 -96 -2 -115
-5 -34 -5 -34 -4 -42 39 -14 84 -88 174 -177 217 -20 11 -66 20 -106 22 -61 3
-78 -1 -130 -26z m175 -113 c-36 -31 -237 -175 -297 -212 -9 -5 -13 -2 -13 11
0 13 29 39 87 78 48 32 92 61 98 64 16 8 88 57 115 79 47 38 55 21 10 -20z
m74 -63 c-3 -8 -46 -43 -96 -78 -50 -35 -125 -87 -167 -117 -91 -64 -97 -67
-105 -45 -4 9 -5 18 -4 19 2 0 22 15 44 33 23 17 99 70 170 117 124 81 170
102 158 71z m908 -163 c-9 -10 -60 -49 -112 -87 -52 -38 -118 -87 -147 -108
-60 -44 -63 -45 -63 -19 0 20 49 58 220 173 47 32 93 58 103 58 16 0 16 -1 -1
-17z m-619 -264 c59 -31 67 -47 67 -141 0 -125 -35 -197 -76 -157 -24 25 -56
130 -61 205 -5 66 -4 72 18 88 28 19 25 19 52 5z"/>
</g>
</svg>
